<svg width="626" height="626" xmlns="http://www.w3.org/2000/svg" version="1.1" xml:space="preserve">
 <g>
  <title>Layer 1</title>
  <g transform="translate(0 626) scale(0.1 -0.1)" id="svg_2">
   <path class="st0" d="m2875,4966c-163,-27 -321,-78 -453,-146l-57,-29l405,-1c427,0 538,-8 692,-50c362,-96 680,-356 851,-696c110,-218 162,-492 137,-727c-30,-296 -139,-545 -341,-777l-45,-52l-67,47c-37,25 -67,48 -67,50s16,21 36,42c120,127 231,320 278,484c194,678 -241,1374 -934,1493c-78,13 -183,16 -648,16l-554,0l-91,-92l-92,-93l655,-5c697,-6 701,-6 850,-58c300,-104 537,-354 625,-659c99,-340 5,-710 -245,-963l-68,-69l-73,29c-41,15 -83,31 -94,35c-19,7 -19,8 5,23c14,8 66,56 115,106c147,148 221,316 232,526c19,356 -199,688 -529,808c-143,52 -175,53 -918,50l-685,-3l-57,-113c-62,-124 -108,-252 -141,-394c-21,-92 -21,-109 -24,-1281l-4,-1187l95,0l95,0l4,1163c3,1155 3,1163 25,1259c25,109 72,249 108,321l24,47l90,0c50,0 90,-2 90,-5s-20,-45 -44,-93s-55,-124 -70,-170c-57,-181 -56,-157 -56,-1388l0,-1134l95,0l95,0l0,1083c0,666 4,1117 10,1172c20,173 82,340 175,471l46,64l110,0c60,0 109,-2 109,-5s-19,-24 -41,-47c-97,-100 -168,-221 -211,-359l-23,-74l-3,-1152l-3,-1153l101,0l100,0l0,375l0,374l45,-19c143,-61 322,-99 530,-110c93,-5 183,-16 215,-26c210,-62 382,-240 435,-449c8,-32 15,-79 15,-102l0,-43l101,0l102,0l-7,76c-21,229 -157,461 -346,591c-138,94 -255,131 -460,144c-241,16 -374,44 -545,115l-85,36l0,95c0,52 3,93 8,91c4,-2 39,-19 77,-39c161,-84 296,-117 530,-129c234,-14 382,-57 543,-162c248,-162 407,-425 442,-730c6,-46 10,-84 10,-85c0,-2 43,-3 95,-3l95,0l0,49c0,26 -7,88 -15,137c-81,471 -417,834 -885,955c-44,12 -154,26 -265,34c-271,20 -391,56 -557,168l-78,52l0,115l0,114l58,-55c149,-146 356,-229 571,-229c490,-1 956,-288 1184,-729c89,-171 133,-327 152,-538l7,-73l94,0l94,0l0,61c0,34 -7,108 -15,165c-42,278 -169,554 -359,776l-65,76l61,69c184,208 310,477 360,767c29,173 22,410 -17,581c-67,297 -203,543 -415,755c-216,215 -470,354 -772,421c-119,27 -430,35 -553,15zm390,-922c216,-53 392,-230 449,-450c20,-79 21,-229 0,-307c-47,-182 -173,-331 -349,-412c-87,-41 -154,-55 -255,-55c-106,0 -170,14 -265,60c-174,84 -299,237 -341,418c-22,94 -15,255 15,342c108,310 425,482 746,404z" fill="#FFFFFF" id="svg_3"/>
  </g>
 </g>

</svg>